# xmcd CD database file
#
# Track frame offsets:
#	150
#	31128
#	63981
#	103295
#	143746
#	176058
#	209721
#	248728
#	279814
#
# Disc length: 4213 seconds
#
# Revision: 0
# Processed by: cddbd v1.4PL0 Copyright (c) Steve Scherf et al.
# Submitted via: CDex 1.50
#
DISCID=81107309
DTITLE=Various Artist - Jazz Jungle
DYEAR=1900
DGENRE=Jazz
TTITLE0=Shifty
TTITLE1=Twisted
TTITLE2=New Jazz Hustlers
TTITLE3=In Deep Rhytm
TTITLE4=New Jazz Hustlers
TTITLE5=New Jazz Hustlers
TTITLE6=Parallax
TTITLE7=Shifty
TTITLE8=Parallax
EXTD=
EXTT0=
EXTT1=
EXTT2=
EXTT3=
EXTT4=
EXTT5=
EXTT6=
EXTT7=
EXTT8=
PLAYORDER=
